<svg xmlns="http://www.w3.org/2000/svg" viewBox="0 0 480.00 145.06">
  <g transform="translate(18.30, 84.50)">
    <path d="M469 0 233 310V0H62V702H233V394L467 702H668L396 358L678 0Z" transform="translate(0,0) scale(0.1,-0.1)" fill="#1a2238"/>
<path d="M585 238H198Q202 186 231.5 158.5Q261 131 304 131Q368 131 393 185H575Q561 130 524.5 86.0Q488 42 433.0 17.0Q378 -8 310 -8Q228 -8 164.0 27.0Q100 62 64.0 127.0Q28 192 28 279Q28 366 63.5 431.0Q99 496 163.0 531.0Q227 566 310 566Q391 566 454.0 532.0Q517 498 552.5 435.0Q588 372 588 288Q588 264 585 238ZM413 333Q413 377 383.0 403.0Q353 429 308 429Q265 429 235.5 404.0Q206 379 199 333Z" transform="translate(69.7,0) scale(0.1,-0.1)" fill="#1a2238"/>
<path d="M585 238H198Q202 186 231.5 158.5Q261 131 304 131Q368 131 393 185H575Q561 130 524.5 86.0Q488 42 433.0 17.0Q378 -8 310 -8Q228 -8 164.0 27.0Q100 62 64.0 127.0Q28 192 28 279Q28 366 63.5 431.0Q99 496 163.0 531.0Q227 566 310 566Q391 566 454.0 532.0Q517 498 552.5 435.0Q588 372 588 288Q588 264 585 238ZM413 333Q413 377 383.0 403.0Q353 429 308 429Q265 429 235.5 404.0Q206 379 199 333Z" transform="translate(131.3,0) scale(0.1,-0.1)" fill="#1a2238"/>
<path d="M617 326V0H447V303Q447 359 418.0 390.0Q389 421 340 421Q291 421 262.0 390.0Q233 359 233 303V0H62V558H233V484Q259 521 303.0 542.5Q347 564 402 564Q500 564 558.5 500.5Q617 437 617 326Z" transform="translate(192.9,0) scale(0.1,-0.1)" fill="#1a2238"/>
<path d="M342 416H250V0H79V416H17V558H79V574Q79 677 138.0 730.5Q197 784 311 784Q330 784 339 783V638Q290 641 270.0 624.0Q250 607 250 563V558H342Z" transform="translate(260.3,0) scale(0.1,-0.1)" fill="#1a2238"/>
<path d="M28 279Q28 365 66.0 430.5Q104 496 170.0 531.0Q236 566 318 566Q400 566 466.0 531.0Q532 496 570.0 430.5Q608 365 608 279Q608 193 569.5 127.5Q531 62 464.5 27.0Q398 -8 316 -8Q234 -8 168.5 27.0Q103 62 65.5 127.0Q28 192 28 279ZM434 279Q434 346 400.5 382.0Q367 418 318 418Q268 418 235.0 382.5Q202 347 202 279Q202 212 234.5 176.0Q267 140 316 140Q365 140 399.5 176.0Q434 212 434 279Z" transform="translate(296.3,0) scale(0.1,-0.1)" fill="#1a2238"/>
<path d="M408 564V383H361Q297 383 265.0 355.5Q233 328 233 259V0H62V558H233V465Q263 511 308.0 537.5Q353 564 408 564Z" transform="translate(360.0,0) scale(0.1,-0.1)" fill="#1a2238"/>
<path d="M373 145V0H286Q193 0 141.0 45.5Q89 91 89 194V416H21V558H89V694H260V558H372V416H260V192Q260 167 272.0 156.0Q284 145 312 145Z" transform="translate(402.8,0) scale(0.1,-0.1)" fill="#1a2238"/>
  </g>
  <g transform="translate(61.33, 131.06)">
    <path d="M233 565V423H462V291H233V137H492V0H62V702H492V565Z" transform="translate(0,0) scale(0.032,-0.032)" fill="#1a2238"/>
<path d="M690 0H519L233 433V0H62V702H233L519 267V702H690Z" transform="translate(23.312,0) scale(0.032,-0.032)" fill="#1a2238"/>
<path d="M528 480Q509 515 473.5 533.5Q438 552 390 552Q307 552 257.0 497.5Q207 443 207 352Q207 255 259.5 200.5Q312 146 404 146Q467 146 510.5 178.0Q554 210 574 270H357V396H729V237Q710 173 664.5 118.0Q619 63 549.0 29.0Q479 -5 391 -5Q287 -5 205.5 40.5Q124 86 78.5 167.0Q33 248 33 352Q33 456 78.5 537.5Q124 619 205.0 664.5Q286 710 390 710Q516 710 602.5 649.0Q689 588 717 480Z" transform="translate(53.376000000000005,0) scale(0.032,-0.032)" fill="#1a2238"/>
<path d="M233 132H457V0H62V702H233Z" transform="translate(83.76,0) scale(0.032,-0.032)" fill="#1a2238"/>
<path d="M233 702V0H62V702Z" transform="translate(105.024,0) scale(0.032,-0.032)" fill="#1a2238"/>
<path d="M42 210H224Q228 171 251.0 150.5Q274 130 311 130Q349 130 371.0 147.5Q393 165 393 196Q393 222 375.5 239.0Q358 256 332.5 267.0Q307 278 260 292Q192 313 149.0 334.0Q106 355 75.0 396.0Q44 437 44 503Q44 601 115.0 656.5Q186 712 300 712Q416 712 487.0 656.5Q558 601 563 502H378Q376 536 353.0 555.5Q330 575 294 575Q263 575 244.0 558.5Q225 542 225 511Q225 477 257.0 458.0Q289 439 357 417Q425 394 467.5 373.0Q510 352 541.0 312.0Q572 272 572 209Q572 149 541.5 100.0Q511 51 453.0 22.0Q395 -7 316 -7Q239 -7 178.0 18.0Q117 43 80.5 92.0Q44 141 42 210Z" transform="translate(120.464,0) scale(0.032,-0.032)" fill="#1a2238"/>
<path d="M670 702V0H499V289H233V0H62V702H233V427H499V702Z" transform="translate(146.144,0) scale(0.032,-0.032)" fill="#1a2238"/>
<path d="M42 210H224Q228 171 251.0 150.5Q274 130 311 130Q349 130 371.0 147.5Q393 165 393 196Q393 222 375.5 239.0Q358 256 332.5 267.0Q307 278 260 292Q192 313 149.0 334.0Q106 355 75.0 396.0Q44 437 44 503Q44 601 115.0 656.5Q186 712 300 712Q416 712 487.0 656.5Q558 601 563 502H378Q376 536 353.0 555.5Q330 575 294 575Q263 575 244.0 558.5Q225 542 225 511Q225 477 257.0 458.0Q289 439 357 417Q425 394 467.5 373.0Q510 352 541.0 312.0Q572 272 572 209Q572 149 541.5 100.0Q511 51 453.0 22.0Q395 -7 316 -7Q239 -7 178.0 18.0Q117 43 80.5 92.0Q44 141 42 210Z" transform="translate(188.32,0) scale(0.032,-0.032)" fill="#1a2238"/>
<path d="M386 710Q511 710 600.0 644.0Q689 578 719 464H531Q510 508 471.5 531.0Q433 554 384 554Q305 554 256.0 499.0Q207 444 207 352Q207 260 256.0 205.0Q305 150 384 150Q433 150 471.5 173.0Q510 196 531 240H719Q689 126 600.0 60.5Q511 -5 386 -5Q284 -5 203.5 40.5Q123 86 78.0 167.0Q33 248 33 352Q33 456 78.0 537.5Q123 619 203.5 664.5Q284 710 386 710Z" transform="translate(214.0,0) scale(0.032,-0.032)" fill="#1a2238"/>
<path d="M670 702V0H499V289H233V0H62V702H233V427H499V702Z" transform="translate(244.38400000000001,0) scale(0.032,-0.032)" fill="#1a2238"/>
<path d="M33 353Q33 456 81.5 538.0Q130 620 212.5 666.0Q295 712 394 712Q493 712 575.5 666.0Q658 620 705.5 538.0Q753 456 753 353Q753 250 705.0 167.5Q657 85 575.0 39.0Q493 -7 394 -7Q295 -7 212.5 39.0Q130 85 81.5 167.5Q33 250 33 353ZM579 353Q579 446 528.5 501.5Q478 557 394 557Q309 557 258.5 502.0Q208 447 208 353Q208 260 258.5 204.5Q309 149 394 149Q478 149 528.5 205.0Q579 261 579 353Z" transform="translate(273.776,0) scale(0.032,-0.032)" fill="#1a2238"/>
<path d="M33 353Q33 456 81.5 538.0Q130 620 212.5 666.0Q295 712 394 712Q493 712 575.5 666.0Q658 620 705.5 538.0Q753 456 753 353Q753 250 705.0 167.5Q657 85 575.0 39.0Q493 -7 394 -7Q295 -7 212.5 39.0Q130 85 81.5 167.5Q33 250 33 353ZM579 353Q579 446 528.5 501.5Q478 557 394 557Q309 557 258.5 502.0Q208 447 208 353Q208 260 258.5 204.5Q309 149 394 149Q478 149 528.5 205.0Q579 261 579 353Z" transform="translate(304.928,0) scale(0.032,-0.032)" fill="#1a2238"/>
<path d="M233 132H457V0H62V702H233Z" transform="translate(336.08,0) scale(0.032,-0.032)" fill="#1a2238"/>
  </g>
</svg>